<?xml version="1.0" encoding="utf-8"?>
<!-- Generator: Adobe Illustrator 18.0.0, SVG Export Plug-In . SVG Version: 6.00 Build 0)  -->
<!DOCTYPE svg PUBLIC "-//W3C//DTD SVG 1.1//EN" "http://www.w3.org/Graphics/SVG/1.1/DTD/svg11.dtd">
<svg version="1.1" id="Capa_1" xmlns="http://www.w3.org/2000/svg" xmlns:xlink="http://www.w3.org/1999/xlink" x="0px" y="0px"
	 viewBox="0 0 512 512" enable-background="new 0 0 512 512" xml:space="preserve">
<path fill="#FFFFFF" d="M298.7,0c-95.2,0-175.5,22.1-203,55.3c-55.9,13.7-88.2,36.7-94.5,60c-0.7,1.3-1.2,2.6-1.2,4.2v4.3v98.1v4.3
	v4.3v93.9v4.3v4.3v102.4c0,1.4,0.4,2.7,1,3.8c10.1,41.8,100.2,73,212.3,73c95.9,0,175.6-22.9,203-55.6
	c54.3-13.2,88.5-34.8,94.6-59.7c0.7-1.2,1.1-2.6,1.1-4.1V290.1v-4.3v-98.1v-4.3V81.1C512,41.8,437.2,0,298.7,0z M407.9,335.8
	c-0.3,0.8-0.8,1.7-1.2,2.5c-0.6,1-1.2,2.1-2,3.1c-0.6,0.8-1.2,1.6-1.9,2.4c-0.9,1.1-2,2.2-3.1,3.3c-0.7,0.7-1.5,1.3-2.2,2
	c-1.4,1.2-2.9,2.4-4.5,3.6c-0.7,0.5-1.5,1-2.2,1.5c-1.9,1.3-3.9,2.7-6.2,4c-0.6,0.3-1.2,0.7-1.8,1c-2.5,1.4-5.2,2.9-8.1,4.2
	c-0.4,0.2-0.8,0.3-1.1,0.5c-3.2,1.5-6.5,3-10.1,4.4c-0.1,0-0.2,0.1-0.3,0.1c-19.4,7.7-44.2,14.3-73.1,18.5c-0.1,0-0.3,0-0.4,0.1
	c-5.6,0.8-11.4,1.6-17.3,2.2c-1,0.1-2,0.2-3,0.3c-5.2,0.5-10.4,1-15.8,1.4c-2.5,0.2-5,0.3-7.5,0.4c-4,0.2-8,0.5-12.2,0.6
	c-6.8,0.2-13.7,0.3-20.7,0.3s-14-0.1-20.8-0.4c-4.1-0.1-8.1-0.4-12.2-0.6c-2.5-0.1-5.1-0.2-7.5-0.4c-5.4-0.4-10.6-0.9-15.8-1.4
	c-1-0.1-2-0.2-3-0.3c-5.9-0.6-11.7-1.4-17.3-2.2c-0.1,0-0.3,0-0.4-0.1c-28.9-4.3-53.7-10.8-73.1-18.5c-0.1,0-0.2-0.1-0.3-0.1
	c-3.6-1.4-6.9-2.9-10.1-4.4c-0.4-0.2-0.8-0.3-1.1-0.5c-2.9-1.4-5.5-2.8-8.1-4.2c-0.6-0.3-1.2-0.7-1.8-1c-2.2-1.3-4.2-2.6-6.2-4
	c-0.7-0.5-1.5-1-2.2-1.5c-1.6-1.2-3.1-2.4-4.5-3.6c-0.8-0.7-1.5-1.3-2.2-2c-1.1-1.1-2.2-2.2-3.1-3.3c-0.7-0.8-1.3-1.6-1.9-2.4
	c-0.8-1-1.4-2.1-2-3.1c-0.5-0.8-0.9-1.7-1.2-2.5c-0.4-1-0.8-2.1-1-3.1c-0.3-1.4-0.7-2.7-0.7-4.1c0-1,0.1-1.9,0.3-2.9
	c0.2-1.3,0.1-2.6-0.3-3.8v-63.4c0.2,0.2,0.5,0.4,0.8,0.7c1.9,1.6,3.8,3.3,5.9,4.8c32.1,24.3,96.4,43.2,189.6,43.2
	c92.8,0,156.9-18.7,189.2-42.9c2.6-1.9,4.9-3.8,7.1-5.8l0,0v63.4c-0.4,1.2-0.5,2.5-0.3,3.8c0.2,1,0.3,1.9,0.3,2.9
	c0,1.4-0.3,2.8-0.7,4.1C408.7,333.7,408.4,334.7,407.9,335.8z M22.2,160.4c2.6,2,5.3,4,8.3,5.9c0.6,0.4,1.3,0.8,2,1.2
	c2.5,1.6,5.2,3.1,8,4.6c1,0.6,2.1,1.1,3.1,1.6c3.1,1.6,6.4,3.1,9.8,4.6c0.6,0.2,1.1,0.5,1.6,0.7c4,1.7,8.3,3.3,12.7,4.9
	c1.2,0.4,2.5,0.8,3.8,1.3c3.5,1.2,7.2,2.3,10.9,3.4c1.4,0.4,2.7,0.8,4.1,1.2c5,1.4,10.1,2.7,15.6,3.9c0.7,0.2,1.5,0.3,2.3,0.5
	c4.8,1,9.7,2,14.8,2.9c1.7,0.3,3.5,0.6,5.2,0.9c4.8,0.8,9.8,1.5,14.9,2.2c1.3,0.2,2.6,0.4,3.9,0.5c6.3,0.8,12.9,1.4,19.7,2
	c1.7,0.1,3.4,0.2,5.1,0.4c5.4,0.4,10.9,0.7,16.6,1c2.1,0.1,4.1,0.2,6.2,0.3c7.4,0.2,14.9,0.4,22.6,0.4s15.3-0.2,22.6-0.4
	c2.1-0.1,4.1-0.2,6.2-0.3c5.6-0.3,11.2-0.6,16.6-1c1.7-0.1,3.4-0.2,5.1-0.4c6.7-0.6,13.3-1.2,19.7-2c1.3-0.2,2.6-0.4,3.9-0.5
	c5.1-0.7,10.1-1.4,14.9-2.2c1.8-0.3,3.5-0.6,5.2-0.9c5.1-0.9,10-1.9,14.8-2.9c0.8-0.2,1.6-0.3,2.3-0.5c5.4-1.2,10.6-2.5,15.6-3.9
	c1.4-0.4,2.7-0.8,4.1-1.2c3.8-1.1,7.4-2.2,10.9-3.4c1.3-0.4,2.5-0.8,3.8-1.3c4.4-1.6,8.7-3.2,12.7-4.9c0.6-0.2,1.1-0.5,1.6-0.7
	c3.4-1.5,6.7-3,9.8-4.6c1.1-0.5,2.1-1.1,3.1-1.6c2.8-1.5,5.4-3,8-4.6c0.6-0.4,1.3-0.8,2-1.2c3-1.9,5.8-3.9,8.3-5.9
	c0.6-0.5,1.2-1,1.8-1.5c1.1-0.9,2.3-1.8,3.3-2.8v63.4c-0.4,1.2-0.5,2.5-0.3,3.8c0.2,1,0.3,1.9,0.3,2.9c0,1.4-0.3,2.8-0.7,4.1
	c-0.2,1-0.6,2.1-1,3.1c-0.3,0.8-0.8,1.7-1.2,2.5c-0.6,1-1.2,2.1-2,3.1c-0.6,0.8-1.2,1.6-1.9,2.4c-0.9,1.1-2,2.2-3.1,3.3
	c-0.7,0.7-1.5,1.3-2.2,2c-1.4,1.2-2.9,2.4-4.5,3.6c-0.7,0.5-1.5,1-2.2,1.5c-1.9,1.3-3.9,2.7-6.2,4c-0.6,0.3-1.2,0.7-1.8,1
	c-2.5,1.4-5.2,2.9-8.1,4.2c-0.4,0.2-0.8,0.3-1.1,0.5c-3.2,1.5-6.5,3-10.1,4.4c-0.1,0-0.2,0.1-0.3,0.1c-19.4,7.7-44.2,14.3-73.1,18.5
	c-0.1,0-0.3,0-0.4,0.1c-5.6,0.8-11.4,1.6-17.3,2.2c-1,0.1-2,0.2-3,0.3c-5.2,0.5-10.4,1-15.8,1.4c-2.5,0.2-5,0.3-7.5,0.4
	c-4,0.2-8,0.5-12.2,0.6c-6.8,0.2-13.7,0.3-20.7,0.3s-14-0.1-20.8-0.4c-4.1-0.1-8.1-0.4-12.2-0.6c-2.5-0.1-5.1-0.2-7.5-0.4
	c-5.4-0.4-10.6-0.9-15.8-1.4c-1-0.1-2-0.2-3-0.3c-5.9-0.6-11.7-1.4-17.3-2.2c-0.1,0-0.3,0-0.4-0.1c-28.9-4.3-53.7-10.8-73.1-18.5
	c-0.1,0-0.2-0.1-0.3-0.1c-3.6-1.4-6.9-2.9-10.1-4.4c-0.4-0.2-0.8-0.3-1.1-0.5c-2.9-1.4-5.5-2.8-8.1-4.2c-0.6-0.3-1.2-0.7-1.8-1
	c-2.2-1.3-4.2-2.6-6.2-4c-0.7-0.5-1.5-1-2.2-1.5c-1.6-1.2-3.1-2.4-4.5-3.6c-0.8-0.7-1.5-1.3-2.2-2c-1.1-1.1-2.2-2.2-3.1-3.3
	c-0.7-0.8-1.3-1.6-1.9-2.4c-0.8-1-1.4-2.1-2-3.1c-0.5-0.8-0.9-1.7-1.2-2.5c-0.4-1-0.8-2.1-1-3.1c-0.3-1.4-0.7-2.7-0.7-4.1
	c0-1,0.1-1.9,0.3-2.9c0.2-1.3,0.1-2.6-0.3-3.8v-63.4c1,0.9,2.2,1.8,3.3,2.8C21,159.4,21.6,159.9,22.2,160.4z M426.7,333.6v-0.8v-4.3
	v-4.3v-75.3c0.4-0.1,0.7-0.2,1.1-0.3c3.4-1,6.7-1.9,10-3c0,0,0.1,0,0.1,0c25.3-8,44.5-17.9,57.1-29.2v69.5c0,1-0.1,2-0.3,3
	c-0.1,0.8-0.4,1.6-0.6,2.5c-0.1,0.2-0.1,0.5-0.2,0.7c-0.3,0.9-0.7,1.8-1.1,2.7c-0.1,0.1-0.1,0.2-0.2,0.3
	c-7.1,13.8-29.6,27.3-62,37.4C429.2,332.8,428,333.2,426.7,333.6z M494.9,113.9v69.6c0,1-0.1,2-0.3,3c-0.1,0.8-0.4,1.6-0.6,2.5
	c-0.1,0.2-0.1,0.5-0.2,0.7c-0.3,0.9-0.7,1.8-1.1,2.7c-0.1,0.1-0.1,0.2-0.2,0.3c-7.1,13.8-29.6,27.3-62,37.4
	c-1.3,0.4-2.5,0.8-3.8,1.2v-0.8v-4.3v-4.3v-75.3c0.7-0.2,1.4-0.4,2.1-0.6c2-0.6,3.9-1.1,5.8-1.7c1.6-0.5,3.2-1,4.8-1.5
	c1.9-0.6,3.8-1.3,5.7-1.9c1.4-0.5,2.9-1,4.2-1.5c2-0.7,3.9-1.5,5.7-2.2c1.2-0.5,2.4-0.9,3.5-1.4c2.2-0.9,4.3-1.9,6.3-2.8
	c0.7-0.3,1.5-0.7,2.2-1c2.8-1.3,5.4-2.7,7.9-4.1c0.3-0.1,0.5-0.3,0.8-0.4c2.2-1.2,4.4-2.5,6.4-3.8c0.7-0.5,1.4-0.9,2-1.4
	c1.5-1,3-2,4.4-3c0.8-0.6,1.4-1.1,2.2-1.7c1.2-1,2.4-1.9,3.5-2.9C494.5,114.3,494.7,114.1,494.9,113.9z M298.7,17.1
	c115.7,0,196.3,33.7,196.3,64c0,1.1-0.1,2.3-0.3,3.4c-0.1,0.4-0.2,0.7-0.3,1.1c-0.2,0.8-0.4,1.5-0.7,2.3c-0.2,0.4-0.4,0.9-0.6,1.3
	c-0.3,0.7-0.6,1.4-1,2.1c-0.3,0.5-0.6,0.9-0.9,1.4c-0.4,0.7-0.9,1.3-1.3,2c-0.4,0.5-0.8,1-1.2,1.4c-0.5,0.6-1.1,1.3-1.7,1.9
	c-0.4,0.5-0.9,1-1.4,1.4c-0.6,0.6-1.3,1.3-2,1.9c-0.5,0.5-1.1,0.9-1.6,1.4c-0.8,0.6-1.5,1.2-2.3,1.9c-0.6,0.5-1.2,0.9-1.9,1.4
	c-0.9,0.6-1.8,1.2-2.7,1.9c-0.7,0.5-1.3,0.9-2.1,1.3c-1,0.6-2,1.2-3.1,1.8c-0.7,0.4-1.4,0.9-2.2,1.3c-1.1,0.6-2.3,1.2-3.5,1.9
	c-0.8,0.4-1.5,0.8-2.3,1.2c-1.3,0.6-2.7,1.3-4.1,1.9c-0.8,0.3-1.5,0.7-2.2,1c-1.8,0.8-3.7,1.6-5.6,2.4c-0.4,0.2-0.7,0.3-1.1,0.5
	c-2.3,0.9-4.8,1.8-7.3,2.7c-0.7,0.2-1.4,0.5-2.1,0.7c-1.8,0.6-3.7,1.3-5.6,1.9c-1,0.3-2,0.6-3,0.9c-1.4,0.4-2.7,0.8-4.2,1.3v-5v-4.3
	c0-1-0.2-1.9-0.6-2.7c-0.1-0.3-0.2-0.7-0.4-1c0,0,0-0.1-0.1-0.1c-2.4-10-9.6-19.4-20.4-28c-0.1-0.1-0.1-0.1-0.2-0.1
	c-1.6-1.2-3.3-2.4-5-3.6c-30.3-21.4-86-38.2-165-40.8c-7.2-0.3-14.4-0.4-21.8-0.4c-7.3,0-14.5,0.1-21.7,0.4
	c-21.3,0.7-40.8,2.5-58.7,5.1C165.9,30.8,224.2,17.1,298.7,17.1z M115.1,68.8c2.2-0.4,4.4-0.8,6.6-1.2c2.8-0.5,5.7-1,8.6-1.5
	c2.6-0.4,5.1-0.8,7.7-1.2c2.9-0.4,5.8-0.8,8.8-1.2c2.5-0.3,5-0.6,7.6-0.9c5.1-0.6,10.3-1,15.6-1.5c2-0.2,4.1-0.3,6.1-0.4
	c4.1-0.3,8.3-0.5,12.5-0.7c2-0.1,4-0.2,6-0.2c6.1-0.2,12.3-0.3,18.6-0.3c7.1,0,14,0.1,20.8,0.4c4.1,0.1,8,0.4,12,0.6
	c2.6,0.1,5.2,0.2,7.7,0.4c5.3,0.4,10.4,0.9,15.5,1.4c1,0.1,2.2,0.2,3.2,0.3c5.8,0.6,11.4,1.4,16.9,2.2c0.3,0,0.6,0.1,0.9,0.1
	c28.7,4.2,53.4,10.7,72.8,18.4c0.2,0.1,0.4,0.2,0.7,0.3c3.5,1.4,6.7,2.8,9.8,4.3c0.5,0.2,1,0.4,1.4,0.7c2.8,1.3,5.3,2.7,7.8,4.1
	c0.7,0.4,1.4,0.8,2.1,1.2c2.1,1.3,4.1,2.5,5.9,3.8c0.8,0.6,1.6,1.1,2.4,1.7c1.6,1.2,3,2.3,4.3,3.5c0.8,0.7,1.6,1.4,2.4,2.1
	c1.1,1.1,2.1,2.2,3,3.2c0.7,0.8,1.4,1.6,1.9,2.5c0.7,1,1.4,2,1.9,3.1c0.5,0.9,0.9,1.7,1.2,2.6c0.4,1,0.7,2,1,3.1
	c0.3,1.4,0.7,2.8,0.7,4.2c0,30.3-80.6,64-196.3,64S17.1,154,17.1,123.7C17.1,103.1,54.6,80.9,115.1,68.8z M213.3,494.9
	c-111.2,0-191.2-31.6-196-61.1c-0.1-0.4-0.2-0.8-0.3-1.1v-71.8c0.2,0.2,0.5,0.4,0.8,0.7c1.9,1.6,3.8,3.3,5.9,4.8
	c32.1,24.3,96.4,43.2,189.6,43.2c92.8,0,156.9-18.7,189.2-42.9c2.6-1.9,4.9-3.8,7.1-5.8l0,0v71.8c-0.1,0.4-0.2,0.8-0.3,1.2
	c-0.3,1.7-0.9,3.5-1.7,5.2c-0.3,0.7-0.8,1.3-1.2,2C391,468.3,315.5,494.9,213.3,494.9z M494.7,391.2c-2.7,16.6-28.3,33.2-68,44.8
	c0-0.3,0-0.5,0-0.8v-83.9c0.4-0.1,0.7-0.2,1.1-0.3c3.4-1,6.7-1.9,10-3c0,0,0.1,0,0.1,0c25.3-8,44.5-17.9,57.1-29.2V390
	C494.8,390.4,494.7,390.8,494.7,391.2z"/>
</svg>
