<?xml version="1.0" encoding="utf-8"?>
<!-- Generator: Adobe Illustrator 18.0.0, SVG Export Plug-In . SVG Version: 6.00 Build 0)  -->
<!DOCTYPE svg PUBLIC "-//W3C//DTD SVG 1.1//EN" "http://www.w3.org/Graphics/SVG/1.1/DTD/svg11.dtd">
<svg version="1.1" id="Layer_1" xmlns="http://www.w3.org/2000/svg" xmlns:xlink="http://www.w3.org/1999/xlink" x="0px" y="0px"
	 viewBox="0 0 512 512" enable-background="new 0 0 512 512" xml:space="preserve">
<g>
	<path fill="#FFFFFF" d="M251.3,99.8c41.4,0,74.9,33.5,74.9,74.9c0,9.8-2,19.2-5.5,27.8c29.3,7.9,51.6,33,55,63.8
		c4-15.9,12.6-24.6,17.9-29.7c-8.5-20.5-23.7-37.8-43.3-48.8c0.6-4.3,0.9-8.8,0.9-13.2c0-55-44.8-99.8-99.8-99.8l0,0
		c-31.9,0-61.3,15.1-79.8,39.8c-6.5-1.6-13.2-2.4-20-2.4c-48.2,0-87.4,39.2-87.4,87.4c0,1.2,0,2.4,0.1,3.6
		C28.1,214,1.7,247.5,1.7,287c0,48.2,39.2,87.4,87.4,87.4h133c1-8.6,3.6-17,8.2-25H89c-34.5,0-62.4-27.9-62.4-62.4
		s27.9-62.4,62.4-62.4c1.9,0,3.7,0.4,5.6,0.6c-3.5-7.8-5.6-16.4-5.6-25.5c0-34.5,27.9-62.4,62.4-62.4c11.3,0,21.7,3.2,30.8,8.4
		C193.6,118.7,220.2,99.8,251.3,99.8 M401,274.5"/>
	<g>
		<g>
			<path fill="#FFFFFF" d="M359.1,283.5c0,4-0.6,8.3-1.8,12.9c-1.2,4.6-3.3,9.1-6.3,13.5c-3,4.4-6.9,8.4-11.8,12.1
				c-4.9,3.7-11,6.6-18.4,8.8c2.6,0.6,6.3,1.8,11.2,3.4c4.9,1.7,9.6,4.3,14.2,7.9c4.6,3.6,8.6,8.4,12.1,14.5
				c3.5,6.1,5.2,13.9,5.2,23.5c0,7.2-1.3,14.2-3.9,21.1c-2.6,6.9-6.5,13-11.8,18.3c-5.3,5.3-12,9.5-20.1,12.7
				c-8.1,3.2-17.5,4.8-28.3,4.8c-11.2,0-20.8-1.6-28.8-4.8c-8-3.2-14.5-7.3-19.5-12.4c-5-5.1-8.6-10.9-10.9-17.4
				c-2.3-6.5-3.4-13-3.4-19.6c0-11.4,3.5-21.8,10.6-31.3c7.1-9.5,17.9-16.4,32.5-20.8c-7.2-1.6-13.2-4-18.1-7.3
				c-4.9-3.3-8.8-7.1-11.8-11.4c-3-4.3-5.1-8.8-6.3-13.6c-1.2-4.8-1.8-9.5-1.8-14.1c0-6.6,1.2-12.9,3.6-19c2.4-6.1,6-11.5,10.8-16.2
				c4.8-4.7,10.9-8.4,18.4-11.2c7.5-2.8,16.3-4.2,26.5-4.2c12,0,21.7,1.8,29.2,5.4c7.5,3.6,13.4,7.9,17.7,13
				c4.3,5.1,7.2,10.5,8.7,16.2c1.5,5.7,2.2,10.6,2.2,14.8V283.5z M267.4,379.8c0,7.6,1,14,3.1,19.4c2.1,5.4,4.7,9.7,7.9,13
				c3.2,3.3,6.7,5.7,10.6,7.2c3.9,1.5,7.6,2.2,11.2,2.2c10.2,0,18.2-3.9,24-11.8c5.8-7.9,8.7-18.2,8.7-30.9c0-7-0.9-13-2.7-18.1
				c-1.8-5.1-4.2-9.2-7.2-12.5c-3-3.3-6.4-5.7-10.3-7.3c-3.9-1.6-7.9-2.4-12.1-2.4c-9,0-16.8,3.4-23.4,10.3
				c-6.6,6.9-9.9,17.1-9.9,30.6V379.8z M270.4,286.5c0,11.6,2.8,20.7,8.4,27.3c5.6,6.6,12.7,9.9,21.3,9.9c8,0,15-3.1,21-9.3
				c6-6.2,9-15.7,9-28.5c0-10.4-2.5-19.2-7.6-26.4c-5.1-7.2-12.4-10.8-22-10.8c-5.2,0-9.7,1.1-13.5,3.3c-3.8,2.2-6.9,5-9.3,8.5
				c-2.4,3.5-4.2,7.5-5.4,12c-1.2,4.5-1.8,9-1.8,13.6V286.5z"/>
		</g>
		<g>
			<path fill="#FFFFFF" d="M505.8,283.5c0,4-0.6,8.3-1.8,12.9c-1.2,4.6-3.3,9.1-6.3,13.5c-3,4.4-6.9,8.4-11.8,12.1
				c-4.9,3.7-11,6.6-18.4,8.8c2.6,0.6,6.3,1.8,11.2,3.4c4.9,1.7,9.6,4.3,14.2,7.9c4.6,3.6,8.6,8.4,12.1,14.5
				c3.5,6.1,5.2,13.9,5.2,23.5c0,7.2-1.3,14.2-3.9,21.1c-2.6,6.9-6.5,13-11.8,18.3c-5.3,5.3-12,9.5-20.1,12.7
				c-8.1,3.2-17.5,4.8-28.3,4.8c-11.2,0-20.8-1.6-28.8-4.8c-8-3.2-14.5-7.3-19.5-12.4c-5-5.1-8.6-10.9-10.9-17.4
				c-2.3-6.5-3.4-13-3.4-19.6c0-11.4,3.5-21.8,10.6-31.3c7.1-9.5,17.9-16.4,32.5-20.8c-7.2-1.6-13.2-4-18.1-7.3
				c-4.9-3.3-8.8-7.1-11.8-11.4c-3-4.3-5.1-8.8-6.3-13.6c-1.2-4.8-1.8-9.5-1.8-14.1c0-6.6,1.2-12.9,3.6-19c2.4-6.1,6-11.5,10.8-16.2
				c4.8-4.7,10.9-8.4,18.4-11.2c7.5-2.8,16.3-4.2,26.5-4.2c12,0,21.7,1.8,29.2,5.4c7.5,3.6,13.4,7.9,17.7,13
				c4.3,5.1,7.2,10.5,8.7,16.2c1.5,5.7,2.2,10.6,2.2,14.8V283.5z M414.2,379.8c0,7.6,1,14,3.1,19.4c2.1,5.4,4.7,9.7,7.9,13
				c3.2,3.3,6.7,5.7,10.6,7.2c3.9,1.5,7.6,2.2,11.2,2.2c10.2,0,18.2-3.9,24-11.8c5.8-7.9,8.7-18.2,8.7-30.9c0-7-0.9-13-2.7-18.1
				c-1.8-5.1-4.2-9.2-7.2-12.5c-3-3.3-6.4-5.7-10.3-7.3c-3.9-1.6-7.9-2.4-12.1-2.4c-9,0-16.8,3.4-23.4,10.3
				c-6.6,6.9-9.9,17.1-9.9,30.6V379.8z M417.2,286.5c0,11.6,2.8,20.7,8.4,27.3c5.6,6.6,12.7,9.9,21.3,9.9c8,0,15-3.1,21-9.3
				c6-6.2,9-15.7,9-28.5c0-10.4-2.5-19.2-7.6-26.4c-5.1-7.2-12.4-10.8-22-10.8c-5.2,0-9.7,1.1-13.5,3.3c-3.8,2.2-6.9,5-9.3,8.5
				c-2.4,3.5-4.2,7.5-5.4,12c-1.2,4.5-1.8,9-1.8,13.6V286.5z"/>
		</g>
	</g>
</g>
</svg>
