<?xml version="1.0" encoding="utf-8"?>
<!-- Generator: Adobe Illustrator 18.0.0, SVG Export Plug-In . SVG Version: 6.00 Build 0)  -->
<!DOCTYPE svg PUBLIC "-//W3C//DTD SVG 1.1//EN" "http://www.w3.org/Graphics/SVG/1.1/DTD/svg11.dtd">
<svg version="1.1" id="Capa_1" xmlns="http://www.w3.org/2000/svg" xmlns:xlink="http://www.w3.org/1999/xlink" x="0px" y="0px"
	 viewBox="0 0 22 22" enable-background="new 0 0 22 22" xml:space="preserve">
<g>
	<path fill="#FFFFFF" d="M0,8.8v4.3c0,0.4,0.1,0.7,0.3,1h21.4c0.2-0.3,0.3-0.6,0.3-1V8.8c0-0.4-0.1-0.7-0.3-1H0.3
		C0.1,8.2,0,8.5,0,8.8z M18.3,10.6c0.2,0,0.4,0.2,0.4,0.4s-0.2,0.4-0.4,0.4c-0.2,0-0.4-0.2-0.4-0.4S18.1,10.6,18.3,10.6z M15.4,10.6
		c0.2,0,0.4,0.2,0.4,0.4s-0.2,0.4-0.4,0.4S15,11.2,15,11S15.2,10.6,15.4,10.6z M12.5,10.6c0.2,0,0.4,0.2,0.4,0.4s-0.2,0.4-0.4,0.4
		s-0.4-0.2-0.4-0.4S12.3,10.6,12.5,10.6z M3.9,9.4c0.9,0,1.6,0.7,1.6,1.6s-0.7,1.7-1.6,1.7S2.2,11.9,2.2,11S2.9,9.4,3.9,9.4z"/>
	<path fill="#FFFFFF" d="M21.7,7.2c0.2-0.3,0.3-0.6,0.3-1V1.9c0-0.9-0.8-1.7-1.7-1.7H1.7C0.8,0.2,0,0.9,0,1.9v4.3
		c0,0.4,0.1,0.7,0.3,1L21.7,7.2L21.7,7.2z M18.3,3.7c0.2,0,0.4,0.2,0.4,0.4c0,0.2-0.2,0.4-0.4,0.4C18.1,4.4,18,4.2,18,4
		C18,3.8,18.1,3.7,18.3,3.7z M15.4,3.7c0.2,0,0.4,0.2,0.4,0.4c0,0.2-0.2,0.4-0.4,0.4S15,4.2,15,4C15,3.8,15.2,3.7,15.4,3.7z
		 M12.5,3.7c0.2,0,0.4,0.2,0.4,0.4c0,0.2-0.2,0.4-0.4,0.4S12.1,4.2,12.1,4C12.1,3.8,12.3,3.7,12.5,3.7z M3.9,2.4
		c0.9,0,1.6,0.7,1.6,1.6S4.8,5.7,3.9,5.7S2.2,4.9,2.2,4S2.9,2.4,3.9,2.4z"/>
	<path fill="#FFFFFF" d="M0.3,14.9c-0.2,0.3-0.3,0.6-0.3,1v4.3c0,0.9,0.8,1.7,1.7,1.7h18.6c0.9,0,1.7-0.8,1.7-1.7v-4.3
		c0-0.4-0.1-0.7-0.3-1H0.3z M3.9,19.6c-0.9,0-1.7-0.7-1.7-1.6s0.7-1.6,1.7-1.6s1.6,0.7,1.6,1.6S4.8,19.6,3.9,19.6z M12.5,18.3
		c-0.2,0-0.4-0.2-0.4-0.4c0-0.2,0.2-0.4,0.4-0.4s0.4,0.2,0.4,0.4C12.8,18.2,12.7,18.3,12.5,18.3z M15.4,18.3c-0.2,0-0.4-0.2-0.4-0.4
		c0-0.2,0.2-0.4,0.4-0.4s0.4,0.2,0.4,0.4C15.8,18.2,15.6,18.3,15.4,18.3z M18.3,18.3c-0.2,0-0.4-0.2-0.4-0.4c0-0.2,0.2-0.4,0.4-0.4
		c0.2,0,0.4,0.2,0.4,0.4C18.7,18.2,18.5,18.3,18.3,18.3z"/>
</g>
</svg>
