<?xml version="1.0" encoding="utf-8"?>
<!-- Generator: Adobe Illustrator 18.0.0, SVG Export Plug-In . SVG Version: 6.00 Build 0)  -->
<!DOCTYPE svg PUBLIC "-//W3C//DTD SVG 1.1//EN" "http://www.w3.org/Graphics/SVG/1.1/DTD/svg11.dtd">
<svg version="1.1" id="Layer_1" xmlns="http://www.w3.org/2000/svg" xmlns:xlink="http://www.w3.org/1999/xlink" x="0px" y="0px"
	 viewBox="0 0 22 22" enable-background="new 0 0 22 22" xml:space="preserve">
<path fill="#FFFFFF" d="M21.4,8.8C19.2,5.3,15.3,2.4,11,2.4c-1.8,0-3.5,0.5-5.1,1.4c0,0,0,0,0,0c-2.1,1.2-4,3-5.3,5
	C0.6,8.9,0.6,9,0.7,9c3.3,1.9,6.7,3.8,10,5.7c-0.6,0.5-1.2,0.9-1.8,1.4c-0.2,0.1,0,0.5,0.2,0.3c0.4-0.3,0.9-0.5,1.4-0.5
	c-0.1,0.1-0.1,0.1-0.2,0.2c-0.3,0.4-0.5,0.8-0.2,1.1c-0.1,0-0.2,0-0.2,0.1c0,0,0,0.1,0,0.1c-0.1,0.6-0.8,1-0.5,1.6
	c0,0.1,0.1,0,0.1,0c-0.3-0.5,0.4-1,0.5-1.5c0,0,0,0,0,0c0.1,0.4-0.5,0.7-0.5,1.2c0,0.1,0.1,0.1,0.1,0c0-0.4,0.5-0.7,0.5-1.1
	c0,0,0,0,0,0c0,0.5-0.5,0.9-0.3,1.4c0,0.1,0.1,0,0.1,0c0,0.1,0,0.3,0.1,0.4c0,0.1,0.1,0,0.1-0.1c-0.2-0.2,0-0.5,0.1-0.7
	c0,0.2,0,0.3-0.1,0.5c0,0.1,0.1,0.1,0.1,0c0.1-0.3,0.1-0.5,0.1-0.8c0-0.1,0-0.1,0-0.2c0,0.3,0.1,0.6-0.1,0.9c0,0.1,0.1,0.1,0.1,0
	c0.2-0.5,0-1,0.1-1.5c0,0,0,0,0,0c-0.1,0.4,0.2,0.8,0.1,1.2c0,0.1,0.1,0.1,0.1,0c0.1-0.4-0.3-0.8-0.1-1.2c0,0,0,0,0,0c0,0,0,0,0,0
	c0,0.5,0.6,1.1,0.2,1.6c0,0.1,0,0.1,0.1,0.1c0.4-0.5-0.2-1.1-0.2-1.7c0,0,0-0.1,0-0.1c0-0.1-0.1-0.1-0.1-0.1c-0.1,0-0.1,0-0.2,0
	c-0.4-0.5,0.1-1,0.4-1.4c0.1,0,0.1,0,0.2,0c0.1,0,0.3,0,0.4,0c0.3,0.3,0.6,0.6,0.2,1.1c-0.1,0-0.1,0-0.2,0c-0.1,0-0.1,0.1-0.1,0.1
	c0,0,0,0.1,0,0.1c0.1,0.6-0.6,1.2-0.2,1.7c0,0.1,0.1,0,0.1-0.1c-0.4-0.5,0.2-1,0.2-1.6c0,0,0,0,0,0c0,0,0,0,0,0
	c0.2,0.4-0.2,0.8-0.1,1.2c0,0.1,0.1,0.1,0.1,0c-0.1-0.4,0.3-0.8,0.1-1.2c0,0,0,0,0,0c0.1,0.5-0.1,1,0.1,1.5c0,0.1,0.1,0,0.1,0
	c-0.2-0.3-0.1-0.6-0.1-0.9c0,0.1,0,0.1,0,0.2c0,0.3,0,0.5,0.1,0.8c0,0.1,0.1,0,0.1,0c-0.1-0.2-0.1-0.3-0.1-0.5
	c0.1,0.2,0.2,0.5,0.1,0.7c0,0.1,0,0.1,0.1,0.1c0.1-0.1,0.1-0.3,0.1-0.4c0,0,0.1,0,0.1,0c0.1-0.5-0.3-0.9-0.3-1.4c0,0,0,0,0,0
	c0,0.4,0.5,0.7,0.5,1.1c0,0.1,0.1,0.1,0.1,0c0-0.4-0.6-0.7-0.5-1.2c0,0,0,0,0,0c0.1,0.5,0.8,0.9,0.5,1.5c0,0.1,0.1,0.1,0.1,0
	c0.3-0.6-0.5-1-0.5-1.6c0,0,0,0,0-0.1c0-0.1-0.1-0.1-0.2-0.1c0.2-0.3,0.1-0.7-0.2-1c0.5,0.1,1,0.2,1.4,0.5c0.2,0.1,0.4-0.2,0.2-0.3
	c-0.6-0.5-1.2-0.9-1.8-1.4c3.3-1.9,6.7-3.8,10-5.7C21.4,9,21.5,8.9,21.4,8.8z M9.9,18.7c0,0.1-0.1,0.2-0.1,0.3
	c-0.1-0.3,0.1-0.6,0.2-0.9C10,18.3,10,18.5,9.9,18.7z M11.9,18.7c0-0.1-0.1-0.2-0.1-0.3c-0.1-0.2-0.1-0.4-0.1-0.6
	C11.8,18,12,18.3,11.9,18.7z M19.3,6.8c-1.9,1.6-3.8,3.3-5.6,5c-0.1-0.1-0.3-0.2-0.4-0.2c0.7-1.1,1.2-2.3,1.9-3.4
	c0.7-1,1.2-2.2,2-3.2C17.9,5.5,18.6,6.1,19.3,6.8z M14,3.3c1,0.3,1.9,0.8,2.8,1.4c-0.7,1-1.3,2.2-2,3.2c-0.8,1.1-1.3,2.4-2,3.5
	c-0.3-0.1-0.6-0.1-0.9-0.2c0.8-2.6,1.4-5.3,1.8-8C13.9,3.2,14,3.3,14,3.3z M13.4,3.1c-0.4,2.7-1,5.4-1.8,8.1c-0.2,0-0.4,0-0.5,0
	c0,0,0,0,0,0c0-1.2-0.1-2.4-0.3-3.6c-0.3-1.6-0.7-3-0.9-4.6C11,2.8,12.2,2.8,13.4,3.1z M9.5,3c0.1,1.2,0.4,2.4,0.7,3.6
	c0.4,1.5,0.5,3,0.5,4.6c0,0,0,0,0,0c-0.2,0-0.5,0-0.7,0.1C9.5,10,9.1,8.7,8.6,7.4C8,6.2,7,5.3,6.3,4.1C7.3,3.5,8.4,3.2,9.5,3z
	 M6,4.3C6.5,5.2,7.3,6,7.9,7c0.8,1.3,1.2,2.9,1.7,4.3c-0.4,0.1-0.7,0.2-1.1,0.4c-1.1-1.1-2.2-2.1-3.1-3.3c-0.6-0.8-1.2-1.7-2-2.3
	C4.3,5.4,5.1,4.8,6,4.3z M1.1,8.9C1.1,8.9,1.1,8.8,1.1,8.9C1.3,8.4,1.7,8,2,7.6c0.4-0.4,0.8-0.9,1.2-1.3c0.2,0.1,0.3,0.3,0.5,0.4
	C3,7.6,2.4,8.4,1.6,9.1C1.5,9.1,1.3,9,1.1,8.9z M2,9.3c0.7-0.7,1.3-1.5,2-2.3c0.2,0.2,0.4,0.4,0.6,0.7C3.8,8.3,3.2,9,2.5,9.6
	C2.3,9.5,2.1,9.4,2,9.3z M2.8,9.8C3.5,9.3,4.1,8.6,4.8,8C4.9,8.2,5,8.4,5.2,8.6C4.9,8.9,4.6,9.1,4.3,9.4C4,9.6,3.7,9.9,3.5,10.2
	C3.3,10.1,3,9.9,2.8,9.8z M3.8,10.4c0.2-0.3,0.5-0.5,0.7-0.8c0.3-0.3,0.6-0.5,0.9-0.8C5.5,9,5.5,9.1,5.6,9.1
	c0.1,0.1,0.1,0.1,0.2,0.2c-0.6,0.3-1,0.9-1.4,1.4C4.2,10.6,4,10.5,3.8,10.4z M4.7,10.9c0.4-0.5,0.8-1,1.3-1.3
	C6.1,9.8,6.3,9.9,6.4,10c-0.4,0.3-0.8,0.8-1.2,1.1C5,11.1,4.9,11,4.7,10.9z M5.5,11.3c0.4-0.4,0.7-0.7,1.1-1.1
	c0.1,0.1,0.2,0.2,0.4,0.4c-0.3,0.4-0.7,0.6-1.1,0.9C5.7,11.5,5.6,11.4,5.5,11.3z M6.8,12.1c-0.2-0.1-0.4-0.2-0.6-0.3
	c0.4-0.3,0.7-0.5,1-0.9c0.1,0.1,0.2,0.2,0.3,0.3c-0.1,0.1-0.2,0.2-0.3,0.4C7.1,11.7,7,11.9,6.8,12.1z M7.1,12.3
	c0.2-0.3,0.4-0.6,0.7-0.8c0,0,0,0,0,0c0.2,0.1,0.3,0.3,0.4,0.4c-0.2,0.2-0.4,0.4-0.6,0.7C7.5,12.5,7.3,12.4,7.1,12.3z M11.9,15.6
	c-0.3-0.1-0.7-0.1-1-0.1c-0.2,0-0.5,0-0.7,0.1c0.3-0.2,0.6-0.4,0.8-0.6C11.3,15.2,11.6,15.4,11.9,15.6z M11,14.5c-1-0.6-2-1.1-3-1.7
	c0.4-1.1,2.1-1.2,3-1.3c0.2,0,0.4,0,0.6,0c0.1,0,0.1,0,0.2,0c0.3,0,0.7,0.1,1,0.2c0,0,0.1,0,0.1,0c0.5,0.2,1,0.5,1.1,0.9
	C13.1,13.3,12,13.9,11,14.5z M14.4,12.6c-0.1-0.2-0.3-0.4-0.4-0.6c0.1-0.1,0.2-0.2,0.3-0.3c0.1,0.2,0.3,0.5,0.5,0.7
	C14.7,12.4,14.5,12.5,14.4,12.6z M15.1,12.2C15.1,12.2,15.1,12.2,15.1,12.2c-0.2-0.2-0.4-0.5-0.5-0.7c0.1-0.1,0.3-0.2,0.4-0.4
	c0.2,0.3,0.3,0.6,0.5,0.9c0,0,0,0,0,0C15.4,12,15.2,12.1,15.1,12.2z M15.8,11.8C15.8,11.8,15.8,11.7,15.8,11.8
	c-0.2-0.3-0.3-0.7-0.5-1c0.1-0.1,0.3-0.3,0.4-0.4c0.3,0.3,0.5,0.6,0.6,1c0,0,0,0,0,0C16.2,11.6,16,11.7,15.8,11.8z M16.7,11.3
	c-0.1-0.4-0.4-0.8-0.7-1.1c0.2-0.2,0.3-0.3,0.5-0.5c0.2,0.4,0.5,0.9,0.8,1.2C17.1,11.1,16.9,11.2,16.7,11.3z M17.6,10.8
	c-0.3-0.4-0.6-0.8-0.8-1.3c0.1-0.1,0.3-0.3,0.4-0.4c0.2,0.5,0.6,0.9,0.8,1.4C17.9,10.6,17.7,10.7,17.6,10.8z M18.4,10.3
	c-0.3-0.5-0.6-1-0.9-1.5c0.1-0.1,0.3-0.2,0.4-0.4c0.3,0.5,0.7,1,1,1.5C18.8,10.1,18.6,10.2,18.4,10.3z M19.3,9.8
	c-0.3-0.6-0.7-1.1-1-1.6c0.1-0.1,0.3-0.2,0.4-0.4c0.5,0.4,0.9,1,1.3,1.6C19.7,9.5,19.5,9.7,19.3,9.8z M20.3,9.2L20.3,9.2
	c-0.4-0.6-0.8-1.2-1.4-1.6c0.2-0.2,0.4-0.4,0.6-0.5C20,7.5,20.4,8,20.7,8.5c0.1,0.1,0.2,0.2,0.3,0.4C20.8,9,20.5,9.1,20.3,9.2z"/>
</svg>
