<?xml version="1.0" encoding="utf-8"?>
<!-- Generator: Adobe Illustrator 18.0.0, SVG Export Plug-In . SVG Version: 6.00 Build 0)  -->
<!DOCTYPE svg PUBLIC "-//W3C//DTD SVG 1.1//EN" "http://www.w3.org/Graphics/SVG/1.1/DTD/svg11.dtd">
<svg version="1.1" id="Layer_1" xmlns="http://www.w3.org/2000/svg" xmlns:xlink="http://www.w3.org/1999/xlink" x="0px" y="0px"
	 viewBox="0 0 588 600" enable-background="new 0 0 588 600" xml:space="preserve">
<path fill="#FFFFFF" d="M257.8,525c0,13.6-11.4,24.5-25.4,24.5c-14,0-25.4-11-25.4-24.5s11.4-24.5,25.4-24.5
	C246.4,500.4,257.8,511.4,257.8,525z M135.9,144.5c0,13.6-11.4,24.5-25.4,24.5c-14,0-25.4-11-25.4-24.5c0-13.6,11.4-24.5,25.4-24.5
	C124.5,119.9,135.9,130.9,135.9,144.5z M570.8,227.8c0,13.6-11.4,24.5-25.4,24.5c-14,0-25.4-11-25.4-24.5s11.4-24.5,25.4-24.5
	C559.4,203.2,570.8,214.2,570.8,227.8z M284.3,597c-17.1-5-33.4-21.5-46.5-47c-5-9.8-6-11-8.5-11c-4.5,0-12-3.5-14.6-6.8
	c-5.9-7.5-4.3-16.7,2.1-23.3c1.9-1.9,2.1-4.2,2.1-5.2c0-1-1.2-6.2-2.8-11.6c-3.3-11.8-9.4-39.5-10.5-47.5c-0.4-3.1-1.1-6.2-1.5-6.8
	c-0.5-0.7-6.4,0.8-17.3,4.5c-31.1,10.6-63.3,18.7-93.5,23.7c-14,2.3-50,2.6-59.3,0.4c-21.2-4.9-32.7-15.6-34-31.7
	c-0.7-8.9,1.6-17.3,8.4-29.9c8.9-16.6,19.3-29.9,38.8-49.3c15.9-15.9,47.8-42.2,65.4-54.2l3.8-2.6l-5.6-4
	C38.6,242.3-2.1,194.2,0.1,163.7C2,138,31,126.6,82,131.5c11.4,1.1,11.5,1.1,14.8-1.4c10.3-7.8,25.5-5.1,32.1,5.6
	c2.3,3.8,3.5,4.6,8.4,5.8c9.4,2.3,36.7,10.4,51.6,15.3c7.7,2.6,14.3,4.4,14.6,4.1c0.3-0.3,1.6-6,2.9-12.7
	c12.7-67.8,33.7-116.8,59-137.7c13-10.7,27.8-13.4,41.2-7.5c12.5,5.4,27.2,21.4,38.6,41.9c8.1,14.5,19,44.5,25.8,70.7
	c3.5,13.5,8.7,38.6,8.7,42c0,1.3,0.5,2.7,1.1,3.1s8.7-1.9,18-5c82.6-27.4,149.5-32.6,175.4-13.5c17.1,12.6,15.4,37.7-4.5,65.6
	c-3.4,4.8-4.1,6.5-3.4,8.7c0.5,1.5,0.9,5.9,1,9.9c0.1,6.5-0.2,7.7-3.2,11.1c-4.7,5.5-11.9,8.2-19.8,7.3c-5.9-0.6-6.3-0.5-9.2,2.5
	c-5.5,5.7-35.7,30.7-49.8,41.2c-7.6,5.6-13.7,10.6-13.7,11.1s3.9,3.7,8.6,7.1c13.7,10,36.6,28.9,47,38.6c47.7,45,66.3,80.6,54,103.2
	c-12,22.1-53.8,25.9-119.8,11.1c-16.8-3.8-56.9-15.5-71.2-20.8c-4.7-1.7-8.8-2.8-9.3-2.4c-0.4,0.4-1.9,7-3.3,14.6
	c-12,66.2-32.2,114.4-56.7,135.3c-3.7,3.2-9.3,6.9-12.5,8.4C301.1,597.9,290.9,598.9,284.3,597z M299.6,583.6
	c27.5-7.3,51.1-56.5,64.7-135.1c1.6-9,2.5-16.7,2-17.1c-0.5-0.4-8.3-3.6-17.4-7S323.6,414,312.8,409l-19.6-9.1l-18.6,8.5
	c-15.8,7.2-33.3,14.4-52.5,21.4c-3.7,1.4-4.3,2-4.3,4.9c0,4.7,2.8,19.6,7.4,40.2c5.9,26,6,26.3,11.6,28.2c6.2,2,9.7,4.4,12.5,9.9
	c2.8,5.7,2.7,12.6-1.9,18.7c-3.8,5.1-3.9,4.6,4.8,20.1c10.4,18.6,21.1,28.8,33.9,32.3C290.6,585.4,293.3,585.2,299.6,583.6
	L299.6,583.6z M545.6,456c8.6-1.5,17.9-6.1,21.4-10.5c4.6-5.7,5.9-10.2,5.3-18.5c-1.3-17.1-17.1-39.9-47.9-68.8
	c-18-16.9-62.6-50.9-65.9-50.2c-0.9,0.2-8.9,5.2-17.7,11.1c-8.8,5.9-23.7,15.4-33.1,21.1l-17.2,10.3l-1.4,19.6
	c-0.8,10.8-2.4,27-3.7,36c-1.3,9.1-2.1,16.7-1.8,16.9c1.3,1.2,30.7,11.3,48.7,16.7C482,454.7,521,460.4,545.6,456L545.6,456z
	 M83.9,455c28.9-3.4,67-13,105.9-26.7c8.6-3,11.9-4.7,11.9-5.9c0-0.9-1-8.9-2.2-17.7c-1.2-8.8-2.8-25.2-3.6-36.5l-1.4-20.5l-6.4-3.4
	c-11.1-5.9-36.8-21.5-48.1-29.3c-6-4.1-11.3-7.5-11.8-7.5c-1.2,0-7.6,4.5-24.6,17.4c-17.6,13.3-44.1,36.4-55.8,48.7
	c-40.8,42.7-44,73.1-8.6,80.8C47.4,456.2,71.3,456.5,83.9,455L83.9,455z M236.9,410.9c8.6-3.4,21.2-8.8,28-11.9l12.3-5.7L266,388
	c-13.8-6.5-33.7-16.8-44-22.7c-11.9-6.9-11.1-7.3-11.1,5.5c0,11.2,1.1,23.4,3.5,39.1C216,420,214.2,419.9,236.9,410.9L236.9,410.9z
	 M370,412.8c4.1-27.8,6.2-53,4.3-53c-0.7,0-1.5,0.4-1.9,1c-1.1,1.6-35.5,19.6-49.9,26.2c-7.4,3.4-13.4,6.4-13.4,6.7
	c0,1.5,54.5,24.4,58.3,24.5C368.7,418.2,369.4,416.8,370,412.8z M313,376c18.7-9,44.2-22.5,57-30.1l6-3.6l0.7-12.4
	c0.9-15.3,0.7-67.9-0.2-71.8c-0.6-2.4-3.9-4.6-20-13.6c-10.6-5.9-19.4-10.7-19.5-10.7c-0.2,0-6.1-2.9-13.3-6.5
	c-23.9-12-28.3-14-30.1-14c-4.3,0-59.6,27.7-79.5,39.8c-4.9,3-5.4,3.6-6.1,8.6c-1.4,9.8-0.1,77.8,1.5,80.3c1.3,2,21.7,14,36.5,21.5
	c20.8,10.5,44.5,21.7,45.9,21.8C292.8,385.4,302.3,381.2,313,376L313,376z M282.1,328.3c-20.1-6.5-29.6-27.2-20-44
	c4.5-7.8,11.7-12.9,21.7-15.2c8.7-2,14.2-1.4,23.7,2.7c20.1,8.6,25.5,33.2,10.7,48.3C310.2,328.4,293.8,332.1,282.1,328.3z
	 M192.7,298.8c0-27.2-0.3-34.2-1.4-33.6c-8.9,4.6-51.6,32.9-51.6,34.2c0,0.5,3.3,3.1,7.3,5.8c9.7,6.6,43.8,27.8,44.9,27.9
	C192.3,333.1,192.7,317.7,192.7,298.8L192.7,298.8z M415.8,319.1c12.3-7.7,24.3-15.6,26.5-17.4c4.1-3.3,4.1-3.3,1.9-4.9
	c-19.3-13.5-48.9-32.2-50.9-32.2c-0.5,0-1.1,15.4-1.3,34.3c-0.2,18.9,0.1,34.3,0.5,34.3C393,333.2,403.5,326.9,415.8,319.1z
	 M156,272.6c13.7-8.8,28.1-17.8,31.9-19.9l6.9-3.9l0.7-11.3c1.1-16.6,2.8-33.3,4.8-47.1c2.7-18.4,3.4-16.6-6.5-20.1
	c-11.1-3.9-46.3-14.5-56.1-16.8l-7.6-1.8l-3.5,3.6c-7,7.1-17.8,9-26.6,4.6c-4.6-2.3-9.1-8.1-10.5-13.2c-0.7-2.6-1.2-2.8-9.3-3.4
	c-14.7-1.2-36.7,0-44.4,2.5c-36.6,11.8-25.6,47.5,30.1,97.5c10.4,9.3,26.6,22.7,36,29.7c25.1,18.7,24.7,18.5,27.1,17
	C130.1,289.2,142.2,281.4,156,272.6L156,272.6z M471.6,281.4c17.5-12.6,27.8-20.7,43.7-34.7l12.8-11.3l-0.7-4.9
	c-1-6.9,0.3-12.9,4.3-17c4.7-4.8,9.2-6.8,16.1-6.3l5.9,0.4l5.4-7.1c12-15.9,16.4-32.7,11.2-42.6c-3-5.8-5.8-8.2-13.2-11.5
	c-18.4-8.2-55.7-6.3-101.5,5c-19.9,4.9-70.1,20.5-72.2,22.4c-0.3,0.3,0.5,8.7,1.9,18.8c2.3,16.9,4.6,42.8,4.7,51.7
	c0,3.6,0.4,4,10,9.7c16.6,9.8,38,23.4,47.6,30.4c5,3.7,9.4,6.7,9.7,6.7C457.7,291.2,464.1,286.8,471.6,281.4L471.6,281.4z
	 M375.2,233.5c0-12.7-4.9-53.9-6.4-53.9c-1.8,0-58.6,24.8-58.6,25.6c0,0.3,2.7,1.7,5.9,3c8.9,3.7,42.8,21.2,50.5,26.3
	c3.8,2.4,7.2,4.4,7.7,4.5C374.8,238.9,375.2,236.5,375.2,233.5L375.2,233.5z M215.3,236.1c7.5-4.7,39.5-21.5,50.1-26.4l11.7-5.4
	l-7.1-3.5c-14.9-7.4-50.8-21.5-52.8-20.9c-1.6,0.6-2.2,3.6-4.4,24.2C208.8,239.7,208.8,240.1,215.3,236.1L215.3,236.1z M304.2,192
	c10.6-4.7,42-17.5,56.7-23c8.1-3,7.9-0.8,2.7-28.3c-10.4-55.2-26.8-96.9-45.2-114.8c-9.2-8.9-16.1-12.2-25.4-12.2
	c-8.1,0-14.5,2.7-21.4,8.9c-21.4,19.3-39.2,62.8-50.3,123.7c-3.2,17.5-3.3,18.9-2,19.9c0.7,0.5,9.4,4.1,19.5,8.1
	c10,4,26.2,10.7,35.9,14.9c9.7,4.2,17.8,7.7,18,7.8C293,196.9,298.1,194.7,304.2,192L304.2,192z"/>
</svg>
