<?xml version="1.0" encoding="utf-8"?>
<!-- Generator: Adobe Illustrator 18.0.0, SVG Export Plug-In . SVG Version: 6.00 Build 0)  -->
<!DOCTYPE svg PUBLIC "-//W3C//DTD SVG 1.1//EN" "http://www.w3.org/Graphics/SVG/1.1/DTD/svg11.dtd">
<svg version="1.1" id="Layer_1" xmlns="http://www.w3.org/2000/svg" xmlns:xlink="http://www.w3.org/1999/xlink" x="0px" y="0px"
	 viewBox="0 0 320 320" enable-background="new 0 0 320 320" xml:space="preserve">
<circle fill="#FFFFFF" stroke="#FFFFFF" stroke-width="8" stroke-miterlimit="10" cx="160" cy="160" r="135"/>
<g>
	<path fill="#696969" d="M200.2,77.9c-5.1-2.1-10.3-3.9-15.7-5.4c-5.3-1.5-11.4-2.2-18.2-2.2c-11.3,0-20,2.8-26.1,8.3
		c-6.1,5.5-9.1,12.4-9.1,20.5c0,2.8,0.4,5.5,1.1,8.3c0.7,2.8,2.1,5.7,4.2,8.6c2,3,4.8,6.2,8.3,9.8s7.9,7.3,13.3,11.4l14.7,11.5
		c6.8,5.3,13,10.3,18.6,14.9c5.5,4.6,10.3,9.3,14.2,14.2c3.9,4.9,7,10.1,9.1,15.7c2.1,5.5,3.2,11.8,3.2,18.9
		c0,8.1-1.6,15.6-4.6,22.4c-3.1,6.8-7.5,12.8-13.1,17.8c-5.7,5-12.4,9-20.2,11.8c-7.8,2.9-16.4,4.3-25.8,4.3
		c-12.6,0-23-1.7-31.2-5.1c-8.2-3.4-14.7-6.4-19.4-9l8.3-17.3c6,3,12.3,5.8,19,8.5c6.7,2.7,14.3,4,22.9,4c6,0,11.1-0.8,15.4-2.6
		c4.3-1.7,7.8-4,10.7-6.9s5-6.1,6.4-9.8c1.4-3.6,2.1-7.4,2.1-11.2s-0.6-7.4-1.9-10.6s-3.2-6.4-5.6-9.6c-2.5-3.2-5.5-6.4-9.3-9.8
		c-3.7-3.3-8.2-7-13.3-11l-15-11.8c-5.1-3.8-10.1-7.9-15-12.2c-4.9-4.3-9.3-8.9-13.1-13.9c-3.8-5-6.9-10.5-9.3-16.3
		c-2.3-5.9-3.5-12.3-3.5-19.4c0-7.5,1.5-14.4,4.6-21c3.1-6.5,7.5-12.2,13.1-17c5.6-4.8,12.3-8.6,20-11.4c7.7-2.8,16.1-4.2,25.3-4.2
		c7.9,0,15.3,0.8,22.2,2.4c6.9,1.6,13.3,3.7,19,6.2L200.2,77.9z"/>
</g>
<circle fill="#FFFFFF" cx="220" cy="208" r="30"/>
<g>
	<path fill="#FFFFFF" stroke="#FFFFFF" stroke-width="16" stroke-miterlimit="10" d="M224.2,189.2c0,1.6-0.2,3.3-0.7,5.2
		c-0.5,1.8-1.3,3.6-2.5,5.4c-1.2,1.8-2.8,3.4-4.7,4.9c-2,1.5-4.4,2.7-7.4,3.5c1,0.2,2.5,0.7,4.5,1.4c2,0.7,3.9,1.7,5.7,3.2
		c1.8,1.4,3.5,3.4,4.9,5.8c1.4,2.4,2.1,5.6,2.1,9.4c0,2.9-0.5,5.7-1.6,8.5c-1,2.8-2.6,5.2-4.7,7.3c-2.1,2.1-4.8,3.8-8,5.1
		c-3.2,1.3-7,1.9-11.3,1.9c-4.5,0-8.3-0.6-11.5-1.9c-3.2-1.3-5.8-2.9-7.8-5c-2-2-3.5-4.4-4.4-7c-0.9-2.6-1.4-5.2-1.4-7.9
		c0-4.6,1.4-8.7,4.3-12.5c2.8-3.8,7.2-6.6,13-8.3c-2.9-0.6-5.3-1.6-7.3-2.9c-2-1.3-3.5-2.8-4.7-4.6c-1.2-1.7-2-3.5-2.5-5.5
		c-0.5-1.9-0.7-3.8-0.7-5.6c0-2.6,0.5-5.2,1.4-7.6c1-2.4,2.4-4.6,4.3-6.5c1.9-1.9,4.4-3.4,7.4-4.5c3-1.1,6.5-1.7,10.6-1.7
		c4.8,0,8.7,0.7,11.7,2.2s5.4,3.2,7.1,5.2c1.7,2,2.9,4.2,3.5,6.5c0.6,2.3,0.9,4.3,0.9,5.9V189.2z"/>
	<path fill="#696969" d="M224.2,189.2c0,1.6-0.2,3.3-0.7,5.2c-0.5,1.8-1.3,3.6-2.5,5.4c-1.2,1.8-2.8,3.4-4.7,4.9
		c-2,1.5-4.4,2.7-7.4,3.5c1,0.2,2.5,0.7,4.5,1.4c2,0.7,3.9,1.7,5.7,3.2c1.8,1.4,3.5,3.4,4.9,5.8c1.4,2.4,2.1,5.6,2.1,9.4
		c0,2.9-0.5,5.7-1.6,8.5c-1,2.8-2.6,5.2-4.7,7.3c-2.1,2.1-4.8,3.8-8,5.1c-3.2,1.3-7,1.9-11.3,1.9c-4.5,0-8.3-0.6-11.5-1.9
		c-3.2-1.3-5.8-2.9-7.8-5c-2-2-3.5-4.4-4.4-7c-0.9-2.6-1.4-5.2-1.4-7.9c0-4.6,1.4-8.7,4.3-12.5c2.8-3.8,7.2-6.6,13-8.3
		c-2.9-0.6-5.3-1.6-7.3-2.9c-2-1.3-3.5-2.8-4.7-4.6c-1.2-1.7-2-3.5-2.5-5.5c-0.5-1.9-0.7-3.8-0.7-5.6c0-2.6,0.5-5.2,1.4-7.6
		c1-2.4,2.4-4.6,4.3-6.5c1.9-1.9,4.4-3.4,7.4-4.5c3-1.1,6.5-1.7,10.6-1.7c4.8,0,8.7,0.7,11.7,2.2s5.4,3.2,7.1,5.2
		c1.7,2,2.9,4.2,3.5,6.5c0.6,2.3,0.9,4.3,0.9,5.9V189.2z M187.5,227.8c0,3,0.4,5.6,1.3,7.8c0.8,2.2,1.9,3.9,3.2,5.2
		c1.3,1.3,2.7,2.3,4.3,2.9c1.6,0.6,3.1,0.9,4.5,0.9c4.1,0,7.3-1.6,9.6-4.7c2.3-3.1,3.5-7.3,3.5-12.4c0-2.8-0.4-5.2-1.1-7.2
		s-1.7-3.7-2.9-5c-1.2-1.3-2.6-2.3-4.1-2.9c-1.6-0.6-3.2-1-4.9-1c-3.6,0-6.7,1.4-9.4,4.1c-2.6,2.8-4,6.8-4,12.3V227.8z M188.7,190.4
		c0,4.6,1.1,8.3,3.4,10.9c2.2,2.6,5.1,4,8.5,4c3.2,0,6-1.2,8.4-3.7c2.4-2.5,3.6-6.3,3.6-11.4c0-4.2-1-7.7-3.1-10.6s-5-4.3-8.8-4.3
		c-2.1,0-3.9,0.4-5.4,1.3c-1.5,0.9-2.8,2-3.7,3.4c-1,1.4-1.7,3-2.2,4.8c-0.5,1.8-0.7,3.6-0.7,5.5V190.4z"/>
	<path fill="#696969" d="M283,189.2c0,1.6-0.2,3.3-0.7,5.2c-0.5,1.8-1.3,3.6-2.5,5.4c-1.2,1.8-2.8,3.4-4.7,4.9
		c-2,1.5-4.4,2.7-7.4,3.5c1,0.2,2.5,0.7,4.5,1.4c2,0.7,3.9,1.7,5.7,3.2c1.8,1.4,3.5,3.4,4.9,5.8c1.4,2.4,2.1,5.6,2.1,9.4
		c0,2.9-0.5,5.7-1.6,8.5s-2.6,5.2-4.7,7.3c-2.1,2.1-4.8,3.8-8,5.1c-3.2,1.3-7,1.9-11.3,1.9c-4.5,0-8.3-0.6-11.5-1.9
		c-3.2-1.3-5.8-2.9-7.8-5c-2-2-3.5-4.4-4.4-7c-0.9-2.6-1.4-5.2-1.4-7.9c0-4.6,1.4-8.7,4.3-12.5c2.8-3.8,7.2-6.6,13-8.3
		c-2.9-0.6-5.3-1.6-7.3-2.9c-2-1.3-3.5-2.8-4.7-4.6c-1.2-1.7-2-3.5-2.5-5.5c-0.5-1.9-0.7-3.8-0.7-5.6c0-2.6,0.5-5.2,1.4-7.6
		c1-2.4,2.4-4.6,4.3-6.5c1.9-1.9,4.4-3.4,7.4-4.5c3-1.1,6.5-1.7,10.6-1.7c4.8,0,8.7,0.7,11.7,2.2s5.4,3.2,7.1,5.2s2.9,4.2,3.5,6.5
		s0.9,4.3,0.9,5.9V189.2z M246.3,227.8c0,3,0.4,5.6,1.3,7.8c0.8,2.2,1.9,3.9,3.2,5.2c1.3,1.3,2.7,2.3,4.3,2.9
		c1.6,0.6,3.1,0.9,4.5,0.9c4.1,0,7.3-1.6,9.6-4.7c2.3-3.1,3.5-7.3,3.5-12.4c0-2.8-0.4-5.2-1.1-7.2s-1.7-3.7-2.9-5s-2.6-2.3-4.1-2.9
		c-1.6-0.6-3.2-1-4.9-1c-3.6,0-6.7,1.4-9.4,4.1c-2.6,2.8-4,6.8-4,12.3V227.8z M247.5,190.4c0,4.6,1.1,8.3,3.4,10.9
		c2.2,2.6,5.1,4,8.5,4c3.2,0,6-1.2,8.4-3.7c2.4-2.5,3.6-6.3,3.6-11.4c0-4.2-1-7.7-3.1-10.6c-2-2.9-5-4.3-8.8-4.3
		c-2.1,0-3.9,0.4-5.4,1.3c-1.5,0.9-2.8,2-3.7,3.4c-1,1.4-1.7,3-2.2,4.8c-0.5,1.8-0.7,3.6-0.7,5.5V190.4z"/>
</g>
</svg>
