<?xml version="1.0" encoding="utf-8"?>
<!-- Generator: Adobe Illustrator 18.0.0, SVG Export Plug-In . SVG Version: 6.00 Build 0)  -->
<!DOCTYPE svg PUBLIC "-//W3C//DTD SVG 1.1//EN" "http://www.w3.org/Graphics/SVG/1.1/DTD/svg11.dtd">
<svg version="1.1" id="Layer_1" xmlns="http://www.w3.org/2000/svg" xmlns:xlink="http://www.w3.org/1999/xlink" x="0px" y="0px"
	 viewBox="0 0 320 320" enable-background="new 0 0 320 320" xml:space="preserve">
<g>
	<path fill="#696969" d="M160,317C73.4,317,3,246.6,3,160S73.4,3,160,3s157,70.4,157,157S246.6,317,160,317z"/>
	<path fill="#FFFFFF" d="M160,6c41.1,0,79.8,16,108.9,45.1S314,118.9,314,160s-16,79.8-45.1,108.9S201.1,314,160,314
		s-79.8-16-108.9-45.1S6,201.1,6,160S22,80.2,51.1,51.1S118.9,6,160,6 M160,0C71.6,0,0,71.6,0,160s71.6,160,160,160
		s160-71.6,160-160S248.4,0,160,0L160,0z"/>
</g>
<g>
	<path fill="#FFFFFF" d="M207.6,62.7c-6.1-2.5-12.3-4.7-18.6-6.4c-6.3-1.8-13.5-2.7-21.6-2.7c-13.4,0-23.7,3.3-30.9,9.9
		c-7.2,6.6-10.8,14.7-10.8,24.3c0,3.3,0.4,6.6,1.3,9.9c0.9,3.3,2.5,6.7,4.9,10.2c2.4,3.5,5.7,7.4,9.9,11.6s9.4,8.7,15.7,13.5
		l17.4,13.7c8.1,6.3,15.4,12.2,22,17.6c6.6,5.4,12.2,11.1,16.9,16.9c4.7,5.8,8.3,12,10.8,18.6c2.5,6.6,3.8,14,3.8,22.4
		c0,9.6-1.8,18.5-5.5,26.5c-3.7,8.1-8.9,15.1-15.6,21c-6.7,5.9-14.7,10.6-23.9,14c-9.2,3.4-19.4,5.1-30.5,5.1c-14.9,0-27.2-2-37-6.1
		c-9.7-4-17.4-7.6-22.9-10.6l9.9-20.5c7.1,3.5,14.6,6.9,22.6,10.1c8,3.2,17,4.7,27.1,4.7c7.1,0,13.1-1,18.2-3
		c5.1-2,9.3-4.7,12.7-8.2c3.4-3.4,5.9-7.3,7.6-11.6c1.6-4.3,2.5-8.7,2.5-13.3c0-4.6-0.8-8.7-2.3-12.5c-1.5-3.8-3.7-7.6-6.6-11.4
		c-2.9-3.8-6.6-7.6-11-11.6c-4.4-3.9-9.7-8.3-15.7-13.1l-17.8-14c-6.1-4.6-12-9.4-17.8-14.4c-5.8-5.1-11-10.6-15.5-16.5
		c-4.6-5.9-8.2-12.4-11-19.3c-2.8-7-4.2-14.6-4.2-22.9c0-8.8,1.8-17.1,5.5-24.8c3.7-7.7,8.8-14.4,15.5-20.1
		c6.7-5.7,14.6-10.2,23.7-13.5c9.1-3.3,19.1-4.9,30-4.9c9.4,0,18.1,0.9,26.4,2.8c8.2,1.9,15.7,4.4,22.6,7.4L207.6,62.7z"/>
</g>
<circle fill="#696969" cx="231.1" cy="216.9" r="35.6"/>
<g>
	<path fill="#696969" stroke="#696969" stroke-width="16" stroke-miterlimit="10" d="M224.2,194.6c0,1.9-0.3,3.9-0.9,6.1
		c-0.6,2.2-1.6,4.3-3,6.4c-1.4,2.1-3.3,4-5.6,5.8c-2.3,1.8-5.2,3.2-8.7,4.2c1.2,0.3,3,0.8,5.3,1.6c2.3,0.8,4.6,2.1,6.8,3.8
		c2.2,1.7,4.1,4,5.8,6.9c1.7,2.9,2.5,6.6,2.5,11.2c0,3.4-0.6,6.8-1.8,10c-1.2,3.3-3.1,6.2-5.6,8.7c-2.5,2.5-5.7,4.5-9.5,6
		c-3.8,1.5-8.3,2.3-13.4,2.3c-5.3,0-9.9-0.8-13.7-2.3c-3.8-1.5-6.9-3.5-9.2-5.9c-2.4-2.4-4.1-5.2-5.2-8.2c-1.1-3.1-1.6-6.2-1.6-9.3
		c0-5.4,1.7-10.4,5-14.9c3.4-4.5,8.5-7.8,15.4-9.9c-3.4-0.8-6.3-1.9-8.6-3.5c-2.3-1.6-4.2-3.4-5.6-5.4c-1.4-2-2.4-4.2-3-6.5
		c-0.6-2.3-0.9-4.5-0.9-6.7c0-3.1,0.6-6.1,1.7-9c1.1-2.9,2.8-5.5,5.1-7.7c2.3-2.2,5.2-4,8.7-5.3c3.6-1.3,7.8-2,12.6-2
		c5.7,0,10.3,0.9,13.9,2.6s6.4,3.8,8.4,6.2c2,2.4,3.4,5,4.1,7.7c0.7,2.7,1.1,5,1.1,7V194.6z"/>
	<path fill="#FFFFFF" d="M224.2,194.6c0,1.9-0.3,3.9-0.9,6.1c-0.6,2.2-1.6,4.3-3,6.4c-1.4,2.1-3.3,4-5.6,5.8
		c-2.3,1.8-5.2,3.2-8.7,4.2c1.2,0.3,3,0.8,5.3,1.6c2.3,0.8,4.6,2.1,6.8,3.8c2.2,1.7,4.1,4,5.8,6.9c1.7,2.9,2.5,6.6,2.5,11.2
		c0,3.4-0.6,6.8-1.8,10c-1.2,3.3-3.1,6.2-5.6,8.7c-2.5,2.5-5.7,4.5-9.5,6c-3.8,1.5-8.3,2.3-13.4,2.3c-5.3,0-9.9-0.8-13.7-2.3
		c-3.8-1.5-6.9-3.5-9.2-5.9c-2.4-2.4-4.1-5.2-5.2-8.2c-1.1-3.1-1.6-6.2-1.6-9.3c0-5.4,1.7-10.4,5-14.9c3.4-4.5,8.5-7.8,15.4-9.9
		c-3.4-0.8-6.3-1.9-8.6-3.5c-2.3-1.6-4.2-3.4-5.6-5.4c-1.4-2-2.4-4.2-3-6.5c-0.6-2.3-0.9-4.5-0.9-6.7c0-3.1,0.6-6.1,1.7-9
		c1.1-2.9,2.8-5.5,5.1-7.7c2.3-2.2,5.2-4,8.7-5.3c3.6-1.3,7.8-2,12.6-2c5.7,0,10.3,0.9,13.9,2.6s6.4,3.8,8.4,6.2
		c2,2.4,3.4,5,4.1,7.7c0.7,2.7,1.1,5,1.1,7V194.6z M180.7,240.3c0,3.6,0.5,6.7,1.5,9.2c1,2.6,2.3,4.6,3.8,6.2c1.5,1.6,3.2,2.7,5,3.4
		c1.8,0.7,3.6,1.1,5.3,1.1c4.8,0,8.6-1.9,11.4-5.6c2.7-3.7,4.1-8.6,4.1-14.7c0-3.3-0.4-6.2-1.3-8.6c-0.9-2.4-2-4.4-3.4-6
		c-1.4-1.6-3.1-2.7-4.9-3.5c-1.8-0.8-3.8-1.1-5.8-1.1c-4.3,0-8,1.6-11.1,4.9c-3.1,3.3-4.7,8.1-4.7,14.5V240.3z M182.1,196
		c0,5.5,1.3,9.8,4,12.9c2.7,3.1,6,4.7,10.1,4.7c3.8,0,7.1-1.5,10-4.4c2.8-2.9,4.3-7.4,4.3-13.5c0-4.9-1.2-9.1-3.6-12.5
		c-2.4-3.4-5.9-5.1-10.5-5.1c-2.5,0-4.6,0.5-6.4,1.6c-1.8,1-3.3,2.4-4.4,4.1c-1.1,1.7-2,3.6-2.6,5.7c-0.6,2.1-0.9,4.3-0.9,6.5V196z"
		/>
	<path fill="#F4A22F" stroke="#696969" stroke-width="16" stroke-miterlimit="10" d="M293.9,194.6c0,1.9-0.3,3.9-0.9,6.1
		c-0.6,2.2-1.6,4.3-3,6.4c-1.4,2.1-3.3,4-5.6,5.8c-2.3,1.8-5.2,3.2-8.7,4.2c1.2,0.3,3,0.8,5.3,1.6c2.3,0.8,4.6,2.1,6.8,3.8
		c2.2,1.7,4.1,4,5.8,6.9c1.7,2.9,2.5,6.6,2.5,11.2c0,3.4-0.6,6.8-1.9,10c-1.2,3.3-3.1,6.2-5.6,8.7c-2.5,2.5-5.7,4.5-9.5,6
		c-3.8,1.5-8.3,2.3-13.4,2.3c-5.3,0-9.9-0.8-13.7-2.3c-3.8-1.5-6.9-3.5-9.2-5.9c-2.4-2.4-4.1-5.2-5.2-8.2c-1.1-3.1-1.6-6.2-1.6-9.3
		c0-5.4,1.7-10.4,5-14.9c3.4-4.5,8.5-7.8,15.4-9.9c-3.4-0.8-6.3-1.9-8.6-3.5c-2.3-1.6-4.2-3.4-5.6-5.4c-1.4-2-2.4-4.2-3-6.5
		c-0.6-2.3-0.9-4.5-0.9-6.7c0-3.1,0.6-6.1,1.7-9c1.1-2.9,2.8-5.5,5.1-7.7c2.3-2.2,5.2-4,8.7-5.3c3.6-1.3,7.8-2,12.6-2
		c5.7,0,10.3,0.9,13.9,2.6c3.6,1.7,6.4,3.8,8.4,6.2c2,2.4,3.4,5,4.1,7.7c0.7,2.7,1.1,5,1.1,7V194.6z M250.4,240.3
		c0,3.6,0.5,6.7,1.5,9.2c1,2.6,2.3,4.6,3.8,6.2c1.5,1.6,3.2,2.7,5,3.4c1.8,0.7,3.6,1.1,5.3,1.1c4.8,0,8.6-1.9,11.4-5.6
		c2.7-3.7,4.1-8.6,4.1-14.7c0-3.3-0.4-6.2-1.3-8.6c-0.9-2.4-2-4.4-3.4-6c-1.4-1.6-3.1-2.7-4.9-3.5c-1.9-0.8-3.8-1.1-5.8-1.1
		c-4.3,0-8,1.6-11.1,4.9c-3.1,3.3-4.7,8.1-4.7,14.5V240.3z M251.8,196c0,5.5,1.3,9.8,4,12.9c2.7,3.1,6,4.7,10.1,4.7
		c3.8,0,7.1-1.5,10-4.4c2.8-2.9,4.3-7.4,4.3-13.5c0-4.9-1.2-9.1-3.6-12.5c-2.4-3.4-5.9-5.1-10.5-5.1c-2.5,0-4.6,0.5-6.4,1.6
		c-1.8,1-3.3,2.4-4.4,4.1c-1.1,1.7-2,3.6-2.6,5.7c-0.6,2.1-0.9,4.3-0.9,6.5V196z"/>
	<path fill="#FFFFFF" d="M293.9,194.6c0,1.9-0.3,3.9-0.9,6.1c-0.6,2.2-1.6,4.3-3,6.4c-1.4,2.1-3.3,4-5.6,5.8
		c-2.3,1.8-5.2,3.2-8.7,4.2c1.2,0.3,3,0.8,5.3,1.6c2.3,0.8,4.6,2.1,6.8,3.8c2.2,1.7,4.1,4,5.8,6.9c1.7,2.9,2.5,6.6,2.5,11.2
		c0,3.4-0.6,6.8-1.9,10c-1.2,3.3-3.1,6.2-5.6,8.7c-2.5,2.5-5.7,4.5-9.5,6c-3.8,1.5-8.3,2.3-13.4,2.3c-5.3,0-9.9-0.8-13.7-2.3
		c-3.8-1.5-6.9-3.5-9.2-5.9c-2.4-2.4-4.1-5.2-5.2-8.2c-1.1-3.1-1.6-6.2-1.6-9.3c0-5.4,1.7-10.4,5-14.9c3.4-4.5,8.5-7.8,15.4-9.9
		c-3.4-0.8-6.3-1.9-8.6-3.5c-2.3-1.6-4.2-3.4-5.6-5.4c-1.4-2-2.4-4.2-3-6.5c-0.6-2.3-0.9-4.5-0.9-6.7c0-3.1,0.6-6.1,1.7-9
		c1.1-2.9,2.8-5.5,5.1-7.7c2.3-2.2,5.2-4,8.7-5.3c3.6-1.3,7.8-2,12.6-2c5.7,0,10.3,0.9,13.9,2.6c3.6,1.7,6.4,3.8,8.4,6.2
		c2,2.4,3.4,5,4.1,7.7c0.7,2.7,1.1,5,1.1,7V194.6z M250.4,240.3c0,3.6,0.5,6.7,1.5,9.2c1,2.6,2.3,4.6,3.8,6.2c1.5,1.6,3.2,2.7,5,3.4
		c1.8,0.7,3.6,1.1,5.3,1.1c4.8,0,8.6-1.9,11.4-5.6c2.7-3.7,4.1-8.6,4.1-14.7c0-3.3-0.4-6.2-1.3-8.6c-0.9-2.4-2-4.4-3.4-6
		c-1.4-1.6-3.1-2.7-4.9-3.5c-1.9-0.8-3.8-1.1-5.8-1.1c-4.3,0-8,1.6-11.1,4.9c-3.1,3.3-4.7,8.1-4.7,14.5V240.3z M251.8,196
		c0,5.5,1.3,9.8,4,12.9c2.7,3.1,6,4.7,10.1,4.7c3.8,0,7.1-1.5,10-4.4c2.8-2.9,4.3-7.4,4.3-13.5c0-4.9-1.2-9.1-3.6-12.5
		c-2.4-3.4-5.9-5.1-10.5-5.1c-2.5,0-4.6,0.5-6.4,1.6c-1.8,1-3.3,2.4-4.4,4.1c-1.1,1.7-2,3.6-2.6,5.7c-0.6,2.1-0.9,4.3-0.9,6.5V196z"
		/>
</g>
</svg>
